<svg width="117" height="117" viewBox="0 0 117 117" fill="none" xmlns="http://www.w3.org/2000/svg">
<path d="M58.2629 116.526C90.4406 116.526 116.526 90.4406 116.526 58.2629C116.526 26.0852 90.4406 0 58.2629 0C26.0852 0 0 26.0852 0 58.2629C0 90.4406 26.0852 116.526 58.2629 116.526Z" fill="url(#paint0_linear_4520:163451)"/>
<path opacity="0.3" d="M58.2629 114.773C42.9613 114.777 28.2727 108.76 17.3709 98.0223C6.46903 87.285 0.22935 72.6895 0 57.3896C0 57.6787 0 57.9918 0 58.2628C0 73.7151 6.13839 88.5345 17.0648 99.4609C27.9912 110.387 42.8106 116.526 58.2629 116.526C73.7152 116.526 88.5346 110.387 99.461 99.4609C110.387 88.5345 116.526 73.7151 116.526 58.2628C116.526 57.9678 116.526 57.6606 116.526 57.3896C116.296 72.6895 110.057 87.285 99.1549 98.0223C88.2531 108.76 73.5645 114.777 58.2629 114.773Z" fill="#1F1CC7"/>
<path d="M58.2629 2.19224C73.525 2.19269 88.1777 8.18181 99.0705 18.872C109.963 29.5621 116.227 44.0997 116.514 59.3591C116.514 58.9918 116.514 58.6305 116.514 58.2631C116.294 42.9575 110.059 28.3533 99.1577 17.6076C88.2564 6.86187 73.564 0.837891 58.2569 0.837891C42.9497 0.837891 28.2574 6.86187 17.356 17.6076C6.45466 28.3533 0.220077 42.9575 0 58.2631C0 58.6305 0 58.9918 0 59.3591C0.287141 44.0976 6.55207 29.5582 17.4475 18.8677C28.343 8.17725 42.9986 2.18953 58.2629 2.19224V2.19224Z" fill="#1F1CC7"/>
<path style="mix-blend-mode:screen" opacity="0.1" d="M58.2624 0.216797C43.1483 0.217525 28.6311 6.11647 17.8002 16.6583C6.96935 27.2001 0.679973 41.5524 0.270508 56.661C6.68394 60.4609 16.7708 57.4198 23.3649 54.1198C29.0376 51.5002 36.0111 52.3734 42.1234 52.813C57.3892 54.1197 72.2334 60.6416 87.4872 56.7393C90.5403 55.8661 94.9003 51.9217 97.9534 54.5533C100.479 56.6251 103.545 57.9284 106.79 58.3084C110.034 58.6884 113.319 58.1292 116.254 56.6972C115.854 41.5822 109.569 27.2207 98.7369 16.6712C87.9051 6.1217 73.3826 0.217777 58.2624 0.216797Z" fill="url(#paint1_linear_4520:163451)"/>
<path d="M58.2635 103.386C83.1842 103.386 103.386 83.1842 103.386 58.2635C103.386 33.3428 83.1842 13.1406 58.2635 13.1406C33.3428 13.1406 13.1406 33.3428 13.1406 58.2635C13.1406 83.1842 33.3428 103.386 58.2635 103.386Z" fill="url(#paint2_linear_4520:163451)"/>
<path d="M58.2639 101.194C81.9739 101.194 101.195 81.973 101.195 58.2629C101.195 34.5528 81.9739 15.332 58.2639 15.332C34.5538 15.332 15.333 34.5528 15.333 58.2629C15.333 81.973 34.5538 101.194 58.2639 101.194Z" fill="#070569"/>
<path d="M58.0398 99.2183C80.782 99.2183 99.2183 80.782 99.2183 58.0398C99.2183 35.2976 80.782 16.8613 58.0398 16.8613C35.2976 16.8613 16.8613 35.2976 16.8613 58.0398C16.8613 80.782 35.2976 99.2183 58.0398 99.2183Z" fill="url(#paint3_radial_4520:163451)"/>
<path d="M68.3094 77.2062C73.5647 69.6245 77.8561 63.3782 77.8322 63.3782C77.8082 63.3782 73.4879 65.907 68.2422 69.0473L58.6763 74.7654V82.8802C58.6763 87.3461 58.6763 91 58.7243 91C58.7722 91 63.0541 84.7928 68.3094 77.2062ZM57.3913 82.9096V74.7752L47.8013 69.0571C42.5269 65.9119 38.2114 63.3537 38.2114 63.3782C38.2114 63.4026 57.0124 90.6527 57.257 90.9071C57.3577 91.0098 57.396 88.8135 57.396 82.9096H57.3913ZM68.3477 64.8456C73.6222 61.6857 77.9856 59.059 78 59.0052C78.0144 58.9514 58.7914 50.2594 58.7099 50.3425C58.6284 50.4257 58.6715 54.9356 58.7099 60.4873L58.7434 70.5832L68.3477 64.8456ZM57.3913 60.4433C57.3913 54.8622 57.3577 50.2936 57.3145 50.2936C57.1947 50.2936 38.0915 58.834 38.0004 58.927C37.9093 59.0199 52.5244 67.7853 56.6432 70.1772L57.3913 70.6077V60.4433ZM47.9308 53.0475L57.3913 48.8262V36.8863C57.3913 30.3171 57.3481 24.9952 57.2858 25.0637C57.0412 25.3474 38.2881 57.2835 38.3744 57.2835C38.4607 57.2835 42.7235 55.3758 47.926 53.0524L47.9308 53.0475ZM77.3958 57.0927C77.3958 57.0242 58.8249 25.1322 58.6955 25.0001C58.6667 24.9708 58.6475 30.3171 58.6475 36.8863V48.8262L67.9114 52.9595C78.3452 57.621 77.3958 57.2052 77.3958 57.0976V57.0927Z" fill="white"/>
<path opacity="0.25" d="M58.2631 96.3518C35.8853 96.3518 17.6808 79.3818 17.0967 57.1426C17.0967 57.5099 17.0967 57.8712 17.0967 58.2386C17.0967 69.1598 21.4351 79.6337 29.1576 87.3562C36.88 95.0786 47.3539 99.417 58.2751 99.417C69.1963 99.417 79.6703 95.0786 87.3927 87.3562C95.1152 79.6337 99.4536 69.1598 99.4536 58.2386C99.4536 57.8712 99.4536 57.5099 99.4536 57.1426C98.8454 79.4059 80.6409 96.3518 58.2631 96.3518Z" fill="#1F1CC7"/>
<defs>
<linearGradient id="paint0_linear_4520:163451" x1="58.2629" y1="0" x2="58.2629" y2="116.526" gradientUnits="userSpaceOnUse">
<stop stop-color="#050285"/>
<stop offset="0.222211" stop-color="#0500BD"/>
<stop offset="0.597227" stop-color="#611E86"/>
<stop offset="0.894114" stop-color="#C43E4A"/>
<stop offset="1" stop-color="#E6382A"/>
</linearGradient>
<linearGradient id="paint1_linear_4520:163451" x1="55.999" y1="69" x2="54.999" y2="4.3666e-07" gradientUnits="userSpaceOnUse">
<stop stop-color="white"/>
<stop offset="1" stop-color="white" stop-opacity="0.5"/>
</linearGradient>
<linearGradient id="paint2_linear_4520:163451" x1="58.2635" y1="103.386" x2="58.2635" y2="-7.48473" gradientUnits="userSpaceOnUse">
<stop stop-color="#0F0B8E"/>
<stop offset="0.305548" stop-color="#0500BD"/>
<stop offset="1" stop-color="#BC392F"/>
</linearGradient>
<radialGradient id="paint3_radial_4520:163451" cx="0" cy="0" r="1" gradientUnits="userSpaceOnUse" gradientTransform="translate(58.4794 22.5581) scale(82.7965)">
<stop offset="0.31" stop-color="#0500BD"/>
<stop offset="1" stop-color="#030072"/>
</radialGradient>
</defs>
</svg>
